<svg width="42" height="42" viewBox="0 0 42 42" fill="none" xmlns="http://www.w3.org/2000/svg">
    <path d="M41.8327 21.0001C41.8327 26.5254 39.6378 31.8245 35.7307 35.7315C31.8237 39.6385 26.5247 41.8334 20.9994 41.8334C18.2635 41.8334 15.5544 41.2946 13.0268 40.2476C10.4992 39.2006 8.20251 37.666 6.26796 35.7315C2.36095 31.8245 0.166016 26.5254 0.166016 21.0001C0.166016 15.4747 2.36095 10.1757 6.26796 6.26869C10.175 2.36168 15.474 0.166748 20.9994 0.166748C23.7352 0.166748 26.4443 0.705618 28.9719 1.75259C31.4995 2.79956 33.7962 4.33414 35.7307 6.26869C37.6653 8.20324 39.1999 10.4999 40.2468 13.0275C41.2938 15.5551 41.8327 18.2642 41.8327 21.0001ZM37.666 21.0001C37.666 16.5798 35.9101 12.3406 32.7845 9.21497C29.6589 6.08936 25.4196 4.33342 20.9994 4.33342C16.5791 4.33342 12.3398 6.08936 9.21424 9.21497C6.08863 12.3406 4.33268 16.5798 4.33268 21.0001C4.33268 25.4204 6.08863 29.6596 9.21424 32.7852C12.3398 35.9108 16.5791 37.6668 20.9994 37.6668C25.4196 37.6668 29.6589 35.9108 32.7845 32.7852C35.9101 29.6596 37.666 25.4204 37.666 21.0001ZM28.0827 30.5834L18.4994 21.0001L28.0827 11.4167L25.166 8.50008L12.666 21.0001L25.166 33.5001L28.0827 30.5834Z" fill="#5771B0"/>
</svg>