<svg id="visual" viewBox="0 0 900 600" width="900" height="600" xmlns="http://www.w3.org/2000/svg" xmlns:xlink="http://www.w3.org/1999/xlink" version="1.1"><rect x="0" y="0" width="900" height="600" fill="#ffffff" fill-opacity="0"></rect><path d="M0 433L21.5 421C43 409 86 385 128.8 378.5C171.7 372 214.3 383 257.2 396.3C300 409.7 343 425.3 385.8 418.7C428.7 412 471.3 383 514.2 376.3C557 369.7 600 385.3 642.8 385.2C685.7 385 728.3 369 771.2 370.3C814 371.7 857 390.3 878.5 399.7L900 409L900 601L878.5 601C857 601 814 601 771.2 601C728.3 601 685.7 601 642.8 601C600 601 557 601 514.2 601C471.3 601 428.7 601 385.8 601C343 601 300 601 257.2 601C214.3 601 171.7 601 128.8 601C86 601 43 601 21.5 601L0 601Z" fill="#99b0ea"></path><path d="M0 415L21.5 412.5C43 410 86 405 128.8 409.3C171.7 413.7 214.3 427.3 257.2 427.5C300 427.7 343 414.3 385.8 413C428.7 411.7 471.3 422.3 514.2 427.7C557 433 600 433 642.8 432.5C685.7 432 728.3 431 771.2 430C814 429 857 428 878.5 427.5L900 427L900 601L878.5 601C857 601 814 601 771.2 601C728.3 601 685.7 601 642.8 601C600 601 557 601 514.2 601C471.3 601 428.7 601 385.8 601C343 601 300 601 257.2 601C214.3 601 171.7 601 128.8 601C86 601 43 601 21.5 601L0 601Z" fill="#7cccef"></path><path d="M0 476L21.5 478.2C43 480.3 86 484.7 128.8 478.8C171.7 473 214.3 457 257.2 459.7C300 462.3 343 483.7 385.8 491C428.7 498.3 471.3 491.7 514.2 482.7C557 473.7 600 462.3 642.8 459.7C685.7 457 728.3 463 771.2 460.7C814 458.3 857 447.7 878.5 442.3L900 437L900 601L878.5 601C857 601 814 601 771.2 601C728.3 601 685.7 601 642.8 601C600 601 557 601 514.2 601C471.3 601 428.7 601 385.8 601C343 601 300 601 257.2 601C214.3 601 171.7 601 128.8 601C86 601 43 601 21.5 601L0 601Z" fill="#8de1e1"></path><path d="M0 494L21.5 501.7C43 509.3 86 524.7 128.8 527.2C171.7 529.7 214.3 519.3 257.2 516C300 512.7 343 516.3 385.8 513.5C428.7 510.7 471.3 501.3 514.2 504.3C557 507.3 600 522.7 642.8 527.2C685.7 531.7 728.3 525.3 771.2 524.3C814 523.3 857 527.7 878.5 529.8L900 532L900 601L878.5 601C857 601 814 601 771.2 601C728.3 601 685.7 601 642.8 601C600 601 557 601 514.2 601C471.3 601 428.7 601 385.8 601C343 601 300 601 257.2 601C214.3 601 171.7 601 128.8 601C86 601 43 601 21.5 601L0 601Z" fill="#bef0d1"></path><path d="M0 540L21.5 544.8C43 549.7 86 559.3 128.8 556.8C171.7 554.3 214.3 539.7 257.2 538C300 536.3 343 547.7 385.8 554.7C428.7 561.7 471.3 564.3 514.2 566.8C557 569.3 600 571.7 642.8 572.8C685.7 574 728.3 574 771.2 571.3C814 568.7 857 563.3 878.5 560.7L900 558L900 601L878.5 601C857 601 814 601 771.2 601C728.3 601 685.7 601 642.8 601C600 601 557 601 514.2 601C471.3 601 428.7 601 385.8 601C343 601 300 601 257.2 601C214.3 601 171.7 601 128.8 601C86 601 43 601 21.5 601L0 601Z" fill="#f5fad0"></path></svg>